<svg width="893" height="609" viewBox="0 0 893 609" fill="none" xmlns="http://www.w3.org/2000/svg">
<path d="M0.707108 18.5335V608.534L590.207 314.034L0.707108 18.5335Z" fill="white"/>
<path d="M0.707108 18.5335V608.534L590.207 314.034L0.707108 18.5335Z" fill="url(#paint0_linear_8_52)"/>
<g filter="url(#filter0_d_8_52)">
<circle cx="255.207" cy="213.034" r="183" transform="rotate(-10.4019 255.207 213.034)" fill="white"/>
<circle cx="255.207" cy="213.034" r="183" transform="rotate(-10.4019 255.207 213.034)" fill="url(#paint1_linear_8_52)"/>
</g>
<mask id="mask0_8_52" style="mask-type:alpha" maskUnits="userSpaceOnUse" x="0" y="18" width="591" height="591">
<path fill-rule="evenodd" clip-rule="evenodd" d="M0.707108 608.534V18.5335L127.394 82.0383C152.528 57.4702 184.997 39.8641 222.166 33.0411C321.573 14.793 416.951 80.5854 435.2 179.992C438.753 199.351 439.12 218.557 436.671 237.07L590.207 314.034L0.707108 608.534Z" fill="white"/>
<path fill-rule="evenodd" clip-rule="evenodd" d="M0.707108 608.534V18.5335L127.394 82.0383C152.528 57.4702 184.997 39.8641 222.166 33.0411C321.573 14.793 416.951 80.5854 435.2 179.992C438.753 199.351 439.12 218.557 436.671 237.07L590.207 314.034L0.707108 608.534Z" fill="url(#paint2_linear_8_52)"/>
</mask>
<g mask="url(#mask0_8_52)">
<path fill-rule="evenodd" clip-rule="evenodd" d="M397.414 97.2406L0.414214 494.241L-1 492.826L396 95.8264L397.414 97.2406Z" fill="white"/>
<path fill-rule="evenodd" clip-rule="evenodd" d="M365.414 66.2406L0.414214 431.241L-1 429.826L364 64.8264L365.414 66.2406Z" fill="white"/>
<path fill-rule="evenodd" clip-rule="evenodd" d="M324.914 43.7406L0.414214 368.241L-1 366.826L323.5 42.3264L324.914 43.7406Z" fill="white"/>
<path fill-rule="evenodd" clip-rule="evenodd" d="M276 26.4378L0.422357 305L-1 303.562L274.578 25L276 26.4378Z" fill="white"/>
<path fill-rule="evenodd" clip-rule="evenodd" d="M206 36.5L0.414214 242.241L-1 240.826L204 35.8264L206 36.5Z" fill="white"/>
<path d="M142 609L154 601.737V30C148.243 34.7316 145.689 36.9904 142 40.5064V609Z" fill="#E5322E"/>
<path d="M171 594.31L160 601V26.4982C164.007 23.5829 165.271 22.6514 171 19V594.31Z" fill="#FFEF0F"/>
<path d="M476.207 331.034H62.2071V342.034H476.207V331.034Z" fill="white"/>
<path d="M476.207 331.034H62.2071V342.034H476.207V331.034Z" fill="url(#paint3_linear_8_52)"/>
</g>
<path d="M300.025 471.786L347.161 448.119L349.464 452.732L302.328 476.399L300.025 471.786Z" fill="black"/>
<path d="M318.941 467.068L330.788 461.119L330.989 510.76L319.492 516.533L318.941 467.068Z" fill="black"/>
<path d="M752.76 267.519C753.176 266.287 754.059 265.27 755.219 264.688L756.525 264.032L759.675 262.45L760.888 261.841C762.488 261.038 764.433 261.521 765.475 262.98L776.981 287.112L768.235 291.647L759.092 271.092L757.986 268.877C757.637 268.178 756.789 267.895 756.092 268.245L755.972 268.305C755.384 268.6 754.941 269.123 754.745 269.752L744.174 303.728L739.799 305.925L752.76 267.519Z" fill="black"/>
<path d="M746.021 291.529L767.806 280.59L768.674 282.328L746.888 293.266L746.021 291.529Z" fill="black"/>
<path d="M397.397 422.896L404.643 419.257L376.476 487.921L380.31 469.386L397.397 422.896Z" fill="black"/>
<path d="M349.46 446.965L362.106 440.615L380.346 469.459L376.5 487.909L349.46 446.965Z" fill="black"/>
<path d="M449.48 396.745L486.269 378.273L488.572 382.886L451.783 401.357L449.48 396.745Z" fill="black"/>
<path d="M447.198 423.851L483.987 405.38L485.138 407.686L448.35 426.158L447.198 423.851Z" fill="black"/>
<path d="M444.077 399.457L454.605 394.171L455.62 448.183L444.331 453.851L444.077 399.457Z" fill="black"/>
<path d="M294.418 474.602L300.351 471.623L280.546 505.414L270.051 514.718L294.418 474.602Z" fill="black"/>
<path d="M269.981 514.576L280.638 505.368L303.766 524.429L289.847 531.418L269.981 514.576Z" fill="black"/>
<path d="M256.037 493.873L268.327 487.702L267.156 542.811L255.77 548.528L256.037 493.873Z" fill="black"/>
<path d="M494.621 395.001L503.406 390.59L503.55 424.402L494.353 429.02L494.621 395.001Z" fill="black"/>
<path d="M508.491 405.836L518.911 400.605L528.843 411.703L518.496 416.898L508.491 405.836Z" fill="black"/>
<path d="M512.968 406.841C512.873 406.563 509.431 406.533 509.682 405.972C510.075 405.095 513.593 403.675 516.126 401.146C518.437 398.838 519.455 395.28 519.549 394.436C519.652 393.514 519.122 390.814 518.209 389.496C517.225 388.076 515.417 388.074 515.076 388.072C511.078 388.05 505.926 391.805 503.075 392.739C501.726 393.181 503.162 391.892 503.406 390.59C505.547 389.746 512.411 386.052 518.683 384.089C522.814 382.797 525.672 383.706 526.825 385.17C528.317 387.066 527.805 391.391 519.22 401.183C515.563 405.354 513.531 408.484 512.968 406.841Z" fill="black"/>
<path d="M540.297 373.618C540.348 371.818 541.38 370.193 542.985 369.387L547.097 367.323C547.303 367.22 547.547 367.229 547.744 367.347C547.941 367.466 548.065 367.677 548.071 367.908L549.002 400.897C549.013 401.308 548.786 401.689 548.419 401.874L542.649 404.771C541.96 405.117 541.14 405.074 540.49 404.659C539.84 404.243 539.455 403.516 539.477 402.743L540.297 373.618Z" fill="black"/>
<path d="M547.084 400.43L568.304 389.776L569.147 391.466L547.928 402.12L547.084 400.43Z" fill="black"/>
<path d="M543.226 385.817L564.446 375.163L565.289 376.852L544.07 387.506L543.226 385.817Z" fill="black"/>
<path d="M546.253 367.747L567.472 357.092L568.741 359.634L547.522 370.288L546.253 367.747Z" fill="black"/>
<path d="M605.089 341.085C605.14 339.286 606.173 337.661 607.777 336.855L611.889 334.79C612.095 334.687 612.339 334.696 612.536 334.815C612.734 334.933 612.857 335.145 612.864 335.375L613.794 368.364C613.806 368.776 613.578 369.157 613.211 369.341L607.441 372.238C606.752 372.584 605.932 372.542 605.282 372.126C604.632 371.711 604.248 370.983 604.27 370.211L605.089 341.085Z" fill="black"/>
<path d="M611.877 367.898L633.096 357.244L633.94 358.933L612.72 369.588L611.877 367.898Z" fill="black"/>
<path d="M608.019 353.284L629.238 342.63L630.082 344.32L608.863 354.974L608.019 353.284Z" fill="black"/>
<path d="M611.045 335.214L632.264 324.56L633.533 327.101L612.314 337.756L611.045 335.214Z" fill="black"/>
<path d="M580.314 352.234L589.625 347.559L589.973 381.009L579.77 386.132L580.314 352.234Z" fill="black"/>
<path d="M583.019 336.813C585.622 334.654 588.7 334.074 589.891 335.518C591.082 336.962 589.937 339.886 587.335 342.045C584.733 344.204 581.654 344.784 580.463 343.34C579.272 341.896 580.417 338.972 583.019 336.813Z" fill="black"/>
<path d="M647.202 320.952C646.637 319.821 647.094 318.444 648.222 317.878L655.498 314.225C656.713 313.614 658.192 314.108 658.801 315.327L658.986 315.699C659.152 316.03 659.018 316.432 658.688 316.598L648.364 321.782C648.034 321.947 647.633 321.813 647.467 321.483L647.202 320.952Z" fill="black"/>
<path d="M674.846 304.51L677.859 302.997L677.803 331.636L673.942 326.696L674.846 304.51Z" fill="black"/>
<path d="M673.8 338.815C672.432 339.391 670.858 339.143 669.731 338.175C664.025 333.274 652.439 323.322 652.439 323.322C651.368 322.402 649.654 322.756 649.033 324.025C648.868 324.362 648.024 324.809 648.035 325.184L648.899 328.318L647.14 320.167L658.492 314.709L672.107 326.801C672.401 327.062 672.808 327.152 673.184 327.04C673.56 326.928 673.852 326.629 673.955 326.25L675.336 321.206L677.805 331.489L677.598 335.044C677.534 336.131 676.947 337.119 676.024 337.691L675.079 338.277L673.8 338.815Z" fill="black"/>
<path d="M645.808 321.025C645.83 319.824 646.515 318.735 647.586 318.197L648.998 317.488L648.969 351.387L645.211 353.274L645.808 321.025Z" fill="black"/>
<path d="M701.533 291.11L714.196 284.752C716.555 283.568 719.125 282.865 721.757 282.683L722.358 282.642L724.016 282.785C725.158 282.883 726.282 283.129 727.362 283.515C728.218 283.821 729.033 284.23 729.791 284.733L730.177 284.99C730.746 285.368 731.231 285.861 731.599 286.437C732.181 287.347 732.547 288.378 732.666 289.452C732.828 290.902 732.839 292.365 732.699 293.817L732.607 294.777C732.504 295.845 732.284 296.898 731.949 297.917L731.171 300.292L730.861 301.029C729.796 303.566 728.375 305.937 726.642 308.07L725.282 309.744L722.791 312.19C721.264 313.689 719.597 315.038 717.813 316.219L714.038 318.716C714.038 318.716 698.798 326.691 698.669 326.433C698.576 326.247 699.599 325.236 702.663 323.398C703.856 322.682 713.522 317.682 713.522 317.682L714.571 317.033C715.885 316.219 717.088 315.238 718.152 314.115C719.1 313.114 719.93 312.007 720.627 310.816C721.522 309.286 722.175 307.627 722.565 305.898L722.813 304.798C723.589 302.038 723.963 299.18 723.925 296.313L723.923 296.145L723.478 294.189C723.229 293.091 722.801 292.042 722.212 291.083C721.875 290.533 721.443 290.048 720.936 289.649C720.017 288.926 718.948 288.418 717.807 288.164C716.661 287.909 715.49 287.781 714.316 287.783C713.335 287.805 712.364 287.987 711.442 288.323L709.986 288.854L702.326 292.7L701.533 291.11Z" fill="black"/>
<path d="M693.667 274.138L702.58 269.662L703.153 324.181L693.126 329.216L693.667 274.138Z" fill="black"/>
<path d="M789.784 277.797C788.7 277.601 787.73 277.001 787.068 276.118L786.855 275.833C785.507 274.032 784.626 271.924 784.291 269.697C783.935 267.327 784.059 264.908 784.655 262.587L784.919 261.557C785.363 259.829 786.033 258.167 786.914 256.616L788.53 253.767L791.379 249.973L794.602 246.368L796.612 244.518L800.346 241.647L804.366 238.992L806.865 237.623C808.442 236.759 810.109 236.068 811.835 235.565C812.821 235.277 813.852 235.175 814.876 235.266L815.485 235.319C817.413 235.489 819.293 236.018 821.029 236.879L821.815 237.269L818.357 240.772C817.853 239.764 816.947 239.016 815.863 238.715L814.173 238.246C813.708 238.117 813.231 238.035 812.75 238.001L812.653 237.994C810.903 237.871 809.152 238.222 807.583 239.01L806.281 239.663C804.905 240.354 803.6 241.18 802.385 242.129L801.199 243.055L797.916 246.59C797.8 246.716 797.695 246.852 797.604 246.997L797.152 247.716C795.974 249.591 795.091 251.637 794.535 253.782L793.613 257.335L793.396 260.533C793.139 264.351 793.978 268.163 795.814 271.517C796.371 272.535 797.433 273.171 798.59 273.18C801.054 273.201 803.487 272.635 805.689 271.529L810.236 269.246C812.287 268.216 814.102 266.769 815.565 264.996C816.778 263.527 817.806 261.913 818.625 260.191L818.712 260.009L821.468 258.625L817.364 265.023L815.209 267.312C814.32 268.256 813.324 269.093 812.24 269.805L810.887 270.694C807.916 272.647 804.763 274.305 801.472 275.646L797.906 277.098C795.5 278.078 792.866 278.353 790.31 277.892L789.784 277.797Z" fill="black"/>
<path d="M832.417 204.471L841.082 200.12L841.422 254.899L832.232 259.514L832.417 204.471Z" fill="black"/>
<path d="M858.779 212.69L868.194 207.962L867.86 241.481L858.67 246.095L858.779 212.69Z" fill="black"/>
<path d="M835.233 238.985L863.805 224.638L865.083 227.196L836.51 241.542L835.233 238.985Z" fill="black"/>
<defs>
<filter id="filter0_d_8_52" x="68.175" y="28.0014" width="374.064" height="374.064" filterUnits="userSpaceOnUse" color-interpolation-filters="sRGB">
<feFlood flood-opacity="0" result="BackgroundImageFix"/>
<feColorMatrix in="SourceAlpha" type="matrix" values="0 0 0 0 0 0 0 0 0 0 0 0 0 0 0 0 0 0 127 0" result="hardAlpha"/>
<feOffset dy="2"/>
<feGaussianBlur stdDeviation="2"/>
<feComposite in2="hardAlpha" operator="out"/>
<feColorMatrix type="matrix" values="0 0 0 0 0 0 0 0 0 0 0 0 0 0 0 0 0 0 0.15 0"/>
<feBlend mode="normal" in2="BackgroundImageFix" result="effect1_dropShadow_8_52"/>
<feBlend mode="normal" in="SourceGraphic" in2="effect1_dropShadow_8_52" result="shape"/>
</filter>
<linearGradient id="paint0_linear_8_52" x1="590.207" y1="314.034" x2="1.2071" y2="314.034" gradientUnits="userSpaceOnUse">
<stop stop-color="#1C5E92" stop-opacity="0.15"/>
<stop offset="1" stop-color="#1C5E92"/>
</linearGradient>
<linearGradient id="paint1_linear_8_52" x1="255.207" y1="396.034" x2="255.207" y2="30.0335" gradientUnits="userSpaceOnUse">
<stop stop-color="#1C5E92"/>
<stop offset="1" stop-color="#1C5E92" stop-opacity="0.15"/>
</linearGradient>
<linearGradient id="paint2_linear_8_52" x1="288.248" y1="393.026" x2="222.166" y2="33.041" gradientUnits="userSpaceOnUse">
<stop stop-color="#1C5E92"/>
<stop offset="1" stop-color="#1C5E92" stop-opacity="0.15"/>
</linearGradient>
<linearGradient id="paint3_linear_8_52" x1="285.707" y1="331.034" x2="285.707" y2="342.034" gradientUnits="userSpaceOnUse">
<stop stop-color="#0E66A1" stop-opacity="0.05"/>
<stop offset="0.2" stop-color="#0E66A1" stop-opacity="0.3"/>
<stop offset="0.55" stop-color="#0E66A1" stop-opacity="0.55"/>
<stop offset="0.7" stop-color="#0E66A1" stop-opacity="0.75"/>
<stop offset="0.85" stop-color="#0E66A1"/>
</linearGradient>
</defs>
</svg>
