<svg viewBox="0 0 220 148" fill="none" xmlns="http://www.w3.org/2000/svg">
<path d="M0 4.49854V147.703L145.371 76.2222L0 4.49854Z" fill="white"/>
<path d="M0 4.49854V147.703L145.371 76.2222L0 4.49854Z" fill="url(#paint0_linear_45_134)"/>
<g filter="url(#filter0_d_45_134)">
<ellipse cx="45.105" cy="44.4411" rx="45.105" ry="44.4411" transform="matrix(0.984066 -0.177801 0.183343 0.983049 10.2257 16.0396)" fill="white"/>
<ellipse cx="45.105" cy="44.4411" rx="45.105" ry="44.4411" transform="matrix(0.984066 -0.177801 0.183343 0.983049 10.2257 16.0396)" fill="url(#paint1_linear_45_134)"/>
</g>
<mask id="mask0_45_134" style="mask-type:alpha" maskUnits="userSpaceOnUse" x="0" y="4" width="146" height="144">
<path d="M31.2412 19.9126C37.4392 13.9494 45.4464 9.67611 54.6123 8.02002C79.1261 3.59101 102.647 19.56 107.146 43.688C108.023 48.3861 108.109 53.0466 107.506 57.5396L145.371 76.2222L0 147.704V4.49854L31.2412 19.9126Z" fill="white"/>
<path d="M31.2412 19.9126C37.4392 13.9494 45.4464 9.67611 54.6123 8.02002C79.1261 3.59101 102.647 19.56 107.146 43.688C108.023 48.3861 108.109 53.0466 107.506 57.5396L145.371 76.2222L0 147.704V4.49854L31.2412 19.9126Z" fill="url(#paint2_linear_45_134)"/>
</mask>
<g mask="url(#mask0_45_134)">
<path fill-rule="evenodd" clip-rule="evenodd" d="M97.8283 23.602L-0.0722435 119.962L-0.42099 119.619L97.4796 23.2588L97.8283 23.602Z" fill="white"/>
<path fill-rule="evenodd" clip-rule="evenodd" d="M89.9371 16.0781L-0.0722435 104.671L-0.42099 104.328L89.5884 15.7349L89.9371 16.0781Z" fill="white"/>
<path fill-rule="evenodd" clip-rule="evenodd" d="M79.9498 10.6162L-0.0722435 89.3788L-0.42099 89.0355L79.601 10.2729L79.9498 10.6162Z" fill="white"/>
<path fill-rule="evenodd" clip-rule="evenodd" d="M67.8875 6.41684L-0.0702354 74.0294L-0.42099 73.6804L67.5367 6.06787L67.8875 6.41684Z" fill="white"/>
<path fill-rule="evenodd" clip-rule="evenodd" d="M50.6254 8.8588L-0.0722435 58.7961L-0.42099 58.4529L50.1322 8.69531L50.6254 8.8588Z" fill="white"/>
<path d="M34.843 147.816L37.8022 146.054V7.28174C36.3825 8.4302 35.7527 8.97846 34.843 9.83185V147.816Z" fill="#E5322E"/>
<path d="M41.9944 144.251L39.2818 145.875V6.43177C40.2699 5.72417 40.5817 5.49809 41.9944 4.61182V144.251Z" fill="#FFEF0F"/>
<path d="M117.259 80.3481H15.166V83.0181H117.259V80.3481Z" fill="white"/>
<path d="M117.259 80.3481H15.166V83.0181H117.259V80.3481Z" fill="url(#paint3_linear_45_134)"/>
</g>
<path d="M73.8121 114.512L85.4358 108.767L86.0038 109.887L74.38 115.631L73.8121 114.512Z" fill="black"/>
<path d="M78.4767 113.366L81.3983 111.922L81.4478 123.971L78.6127 125.372L78.4767 113.366Z" fill="black"/>
<path d="M185.457 64.9322C185.56 64.6332 185.777 64.3863 186.063 64.2449L186.385 64.0858L187.162 63.7019L187.461 63.554C187.856 63.3591 188.336 63.4763 188.592 63.8305L191.43 69.6878L189.273 70.7885L187.018 65.7994L186.746 65.2617C186.66 65.0921 186.451 65.0234 186.279 65.1083L186.249 65.123C186.104 65.1946 185.995 65.3214 185.947 65.4742L183.34 73.7208L182.261 74.2541L185.457 64.9322Z" fill="black"/>
<path d="M183.795 70.7598L189.167 68.1047L189.381 68.5265L184.009 71.1815L183.795 70.7598Z" fill="black"/>
<path d="M97.8241 102.645L99.6111 101.762L92.665 118.428L93.6104 113.929L97.8241 102.645Z" fill="black"/>
<path d="M86.0028 108.487L89.1214 106.946L93.6194 113.947L92.671 118.425L86.0028 108.487Z" fill="black"/>
<path d="M110.668 96.2979L119.74 91.8144L120.308 92.934L111.236 97.4174L110.668 96.2979Z" fill="black"/>
<path d="M110.105 102.877L119.177 98.3935L119.461 98.9533L110.389 103.437L110.105 102.877Z" fill="black"/>
<path d="M109.336 96.9564L111.932 95.6733L112.182 108.783L109.398 110.159L109.336 96.9564Z" fill="black"/>
<path d="M72.4294 115.195L73.8924 114.472L69.0086 122.674L66.4206 124.932L72.4294 115.195Z" fill="black"/>
<path d="M66.4032 124.898L69.0314 122.663L74.7347 127.289L71.3023 128.986L66.4032 124.898Z" fill="black"/>
<path d="M62.9646 119.872L65.9952 118.375L65.7067 131.751L62.8987 133.138L62.9646 119.872Z" fill="black"/>
<path d="M121.8 95.8744L123.966 94.8038L124.002 103.011L121.734 104.131L121.8 95.8744Z" fill="black"/>
<path d="M125.22 98.5044L127.79 97.2345L130.239 99.9283L127.687 101.189L125.22 98.5044Z" fill="black"/>
<path d="M126.324 98.7487C126.3 98.6811 125.452 98.6739 125.514 98.5377C125.611 98.3248 126.478 97.9801 127.103 97.3663C127.673 96.8061 127.924 95.9426 127.947 95.7376C127.972 95.5139 127.842 94.8586 127.616 94.5387C127.374 94.194 126.928 94.1934 126.844 94.193C125.858 94.1877 124.587 95.0992 123.884 95.3259C123.552 95.4331 123.906 95.1201 123.966 94.8043C124.494 94.5993 126.187 93.7028 127.733 93.2264C128.752 92.9126 129.457 93.1334 129.741 93.4887C130.109 93.9488 129.983 94.9987 127.866 97.3754C126.964 98.3876 126.463 99.1475 126.324 98.7487Z" fill="black"/>
<path d="M133.063 90.6846C133.076 90.2478 133.331 89.8533 133.726 89.6578L134.74 89.1567C134.791 89.1316 134.851 89.1338 134.9 89.1626C134.949 89.1913 134.979 89.2426 134.981 89.2986L135.21 97.3057C135.213 97.4056 135.157 97.4981 135.066 97.5429L133.643 98.246C133.473 98.33 133.271 98.3197 133.111 98.2188C132.951 98.118 132.856 97.9414 132.861 97.7539L133.063 90.6846Z" fill="black"/>
<path d="M134.737 97.1924L139.97 94.6064L140.178 95.0165L134.945 97.6025L134.737 97.1924Z" fill="black"/>
<path d="M133.786 93.6455L139.018 91.0595L139.227 91.4696L133.994 94.0556L133.786 93.6455Z" fill="black"/>
<path d="M134.532 89.2593L139.765 86.6733L140.078 87.2901L134.845 89.8761L134.532 89.2593Z" fill="black"/>
<path d="M149.041 82.7881C149.054 82.3514 149.308 81.9568 149.704 81.7613L150.718 81.2602C150.769 81.2351 150.829 81.2373 150.878 81.2661C150.926 81.2949 150.957 81.3462 150.958 81.4021L151.188 89.4092C151.191 89.5091 151.135 89.6016 151.044 89.6464L149.621 90.3496C149.451 90.4335 149.249 90.4232 149.089 90.3223C148.929 90.2215 148.834 90.0449 148.839 89.8574L149.041 82.7881Z" fill="black"/>
<path d="M150.715 89.2959L155.948 86.7099L156.156 87.12L150.923 89.706L150.715 89.2959Z" fill="black"/>
<path d="M149.764 85.749L154.996 83.163L155.204 83.5731L149.972 86.1591L149.764 85.749Z" fill="black"/>
<path d="M150.51 81.3628L155.743 78.7768L156.056 79.3936L150.823 81.9797L150.51 81.3628Z" fill="black"/>
<path d="M142.932 85.494L145.228 84.3593L145.314 92.4783L142.798 93.7218L142.932 85.494Z" fill="black"/>
<path d="M143.599 81.7509C144.241 81.2269 145 81.0861 145.293 81.4366C145.587 81.7871 145.305 82.4968 144.663 83.0208C144.021 83.5448 143.262 83.6856 142.968 83.3352C142.675 82.9847 142.957 82.2749 143.599 81.7509Z" fill="black"/>
<path d="M159.426 77.9016C159.287 77.6269 159.4 77.2928 159.678 77.1554L161.472 76.2687C161.772 76.1206 162.136 76.2404 162.287 76.5363L162.332 76.6265C162.373 76.7068 162.34 76.8045 162.259 76.8447L159.713 78.1029C159.631 78.1431 159.532 78.1106 159.492 78.0303L159.426 77.9016Z" fill="black"/>
<path d="M166.243 73.911L166.986 73.5439L166.972 80.4952L166.02 79.2961L166.243 73.911Z" fill="black"/>
<path d="M165.985 82.2368C165.648 82.3765 165.26 82.3164 164.982 82.0815C163.575 80.8917 160.718 78.4762 160.718 78.4762C160.454 78.2529 160.031 78.3389 159.878 78.647C159.837 78.7287 159.629 78.8372 159.632 78.9282L159.845 79.6888L159.411 77.7104L162.21 76.3856L165.568 79.3206C165.64 79.3839 165.741 79.4059 165.833 79.3786C165.926 79.3514 165.998 79.2789 166.024 79.1868L166.364 77.9626L166.973 80.4586L166.922 81.3214C166.906 81.5853 166.761 81.825 166.534 81.964L166.301 82.1062L165.985 82.2368Z" fill="black"/>
<path d="M159.082 77.9192C159.088 77.6277 159.257 77.3633 159.521 77.2328L159.869 77.0607L159.862 85.2886L158.935 85.7467L159.082 77.9192Z" fill="black"/>
<path d="M172.824 70.6581L175.947 69.1148C176.529 68.8273 177.163 68.6566 177.812 68.6126L177.96 68.6026L178.369 68.6373C178.65 68.6612 178.928 68.7207 179.194 68.8145C179.405 68.8888 179.606 68.9881 179.793 69.1102L179.888 69.1725C180.028 69.2643 180.148 69.3839 180.239 69.5237C180.382 69.7445 180.472 69.995 180.502 70.2557C180.542 70.6075 180.544 70.9626 180.51 71.315L180.487 71.5481C180.462 71.8072 180.407 72.0628 180.325 72.3101L180.133 72.8865L180.057 73.0656C179.794 73.6812 179.444 74.2567 179.016 74.7746L178.681 75.1808L178.067 75.7744C177.69 76.1384 177.279 76.4658 176.839 76.7523L175.908 77.3585C175.908 77.3585 172.15 79.2942 172.118 79.2315C172.095 79.1864 172.347 78.941 173.103 78.4949C173.397 78.3211 175.781 77.1076 175.781 77.1076L176.039 76.9499C176.363 76.7524 176.66 76.5143 176.923 76.2417C177.156 75.9987 177.361 75.73 177.533 75.4409C177.754 75.0697 177.915 74.6671 178.011 74.2472L178.072 73.9802C178.263 73.3104 178.356 72.6168 178.346 71.9208L178.346 71.8801L178.236 71.4052C178.175 71.1387 178.069 70.8841 177.924 70.6514C177.841 70.518 177.734 70.4002 177.609 70.3034C177.383 70.1278 177.119 70.0046 176.838 69.9429C176.555 69.881 176.266 69.8499 175.977 69.8503C175.735 69.8557 175.495 69.9 175.268 69.9816L174.909 70.1103L173.02 71.0438L172.824 70.6581Z" fill="black"/>
<path d="M170.885 66.5389L173.083 65.4527L173.224 78.6855L170.751 79.9075L170.885 66.5389Z" fill="black"/>
<path d="M194.587 67.4271C194.32 67.3796 194.081 67.234 193.917 67.0196L193.865 66.9504C193.532 66.5134 193.315 66.0016 193.233 65.4612C193.145 64.8858 193.175 64.2989 193.322 63.7354L193.387 63.4855C193.497 63.066 193.662 62.6626 193.879 62.2861L194.278 61.5947L194.98 60.6739L195.775 59.7987L196.271 59.3498L197.192 58.6529L198.183 58.0085L198.799 57.6762C199.188 57.4664 199.599 57.2988 200.025 57.1765C200.268 57.1067 200.522 57.0821 200.775 57.104L200.925 57.117C201.401 57.1583 201.864 57.2867 202.292 57.4956L202.486 57.5903L201.633 58.4406C201.509 58.1958 201.286 58.0144 201.018 57.9413L200.602 57.8274C200.487 57.796 200.369 57.7761 200.251 57.7679L200.227 57.7662C199.795 57.7364 199.363 57.8215 198.976 58.0127L198.655 58.1713C198.316 58.3391 197.994 58.5395 197.695 58.7698L197.402 58.9947L196.593 59.8527C196.564 59.8832 196.538 59.9163 196.515 59.9515L196.404 60.1258C196.114 60.5809 195.896 61.0776 195.759 61.5982L195.531 62.4606L195.478 63.2369C195.414 64.1635 195.621 65.0887 196.074 65.9029C196.211 66.1499 196.473 66.3043 196.759 66.3066C197.366 66.3116 197.966 66.1742 198.509 65.9058L199.631 65.3517C200.137 65.1017 200.584 64.7504 200.945 64.3202C201.244 63.9635 201.497 63.5718 201.699 63.1539L201.721 63.1096L202.4 62.7737L201.388 64.3267L200.857 64.8822C200.638 65.1114 200.392 65.3145 200.125 65.4873L199.791 65.7032C199.059 66.1772 198.281 66.5797 197.469 66.9051L196.59 67.2575C195.997 67.4954 195.347 67.5622 194.717 67.4501L194.587 67.4271Z" fill="black"/>
<path d="M205.101 49.629L207.237 48.5731L207.321 61.8691L205.055 62.9891L205.101 49.629Z" fill="black"/>
<path d="M211.601 51.6238L213.923 50.4764L213.841 58.6121L211.575 59.732L211.601 51.6238Z" fill="black"/>
<path d="M205.795 58.0063L212.841 54.5242L213.156 55.145L206.11 58.6271L205.795 58.0063Z" fill="black"/>
<defs>
<filter id="filter0_d_45_134" x="13.6241" y="5.28223" width="98.2718" height="96.8511" filterUnits="userSpaceOnUse" color-interpolation-filters="sRGB">
<feFlood flood-opacity="0" result="BackgroundImageFix"/>
<feColorMatrix in="SourceAlpha" type="matrix" values="0 0 0 0 0 0 0 0 0 0 0 0 0 0 0 0 0 0 127 0" result="hardAlpha"/>
<feOffset dy="2"/>
<feGaussianBlur stdDeviation="2"/>
<feComposite in2="hardAlpha" operator="out"/>
<feColorMatrix type="matrix" values="0 0 0 0 0 0 0 0 0 0 0 0 0 0 0 0 0 0 0.15 0"/>
<feBlend mode="normal" in2="BackgroundImageFix" result="effect1_dropShadow_45_134"/>
<feBlend mode="normal" in="SourceGraphic" in2="effect1_dropShadow_45_134" result="shape"/>
</filter>
<linearGradient id="paint0_linear_45_134" x1="145.371" y1="76.2222" x2="0.123299" y2="76.2222" gradientUnits="userSpaceOnUse">
<stop stop-color="#1C5E92" stop-opacity="0.15"/>
<stop offset="1" stop-color="#1C5E92"/>
</linearGradient>
<linearGradient id="paint1_linear_45_134" x1="45.105" y1="88.8821" x2="45.105" y2="-1.82518e-07" gradientUnits="userSpaceOnUse">
<stop stop-color="#1C5E92"/>
<stop offset="1" stop-color="#1C5E92" stop-opacity="0.15"/>
</linearGradient>
<linearGradient id="paint2_linear_45_134" x1="70.9078" y1="95.3955" x2="55.1046" y2="7.93078" gradientUnits="userSpaceOnUse">
<stop stop-color="#1C5E92"/>
<stop offset="1" stop-color="#1C5E92" stop-opacity="0.15"/>
</linearGradient>
<linearGradient id="paint3_linear_45_134" x1="70.2813" y1="80.3481" x2="70.2813" y2="83.0181" gradientUnits="userSpaceOnUse">
<stop stop-color="#0E66A1" stop-opacity="0.05"/>
<stop offset="0.2" stop-color="#0E66A1" stop-opacity="0.3"/>
<stop offset="0.55" stop-color="#0E66A1" stop-opacity="0.55"/>
<stop offset="0.7" stop-color="#0E66A1" stop-opacity="0.75"/>
<stop offset="0.85" stop-color="#0E66A1"/>
</linearGradient>
</defs>
</svg>
