<svg viewBox="0 0 702 51" fill="none" xmlns="http://www.w3.org/2000/svg">
<path d="M74.911 0.948975L127.655 0.915506L127.647 6.07121L74.9028 6.10468L74.911 0.948975Z" fill="black"/>
<path d="M93.9356 5.20785L107.193 5.19944L85.1252 49.6666L72.2609 49.6747L93.9356 5.20785Z" fill="black"/>
<path d="M571.18 21.2354C572.103 20.3205 573.349 19.8068 574.647 19.806L576.108 19.805L579.633 19.8028L580.99 19.8019C582.781 19.8008 584.303 21.1042 584.58 22.8755L584.051 49.605L574.201 49.7396L575.239 27.267L575.243 24.7908C575.244 24.0096 574.613 23.3767 573.833 23.3772L573.698 23.3773C573.041 23.3777 572.411 23.6462 571.954 24.1211L547.278 49.7567L542.381 49.7598L571.18 21.2354Z" fill="black"/>
<path d="M554.395 39.6783L578.773 39.6629L578.77 41.6051L554.392 41.6206L554.395 39.6783Z" fill="black"/>
<path d="M183.868 0.879724L191.976 0.874578L136.024 49.6342L147.758 34.7822L183.868 0.879724Z" fill="black"/>
<path d="M130.228 0.913818L144.378 0.904839L147.758 34.8641L136.051 49.6342L130.228 0.913818Z" fill="black"/>
<path d="M242.147 0.842896L283.313 0.816774L283.305 5.97248L242.139 5.9986L242.147 0.842896Z" fill="black"/>
<path d="M227.96 24.0525L269.125 24.0264L269.121 26.6042L227.956 26.6303L227.96 24.0525Z" fill="black"/>
<path d="M236.102 0.846663L247.883 0.839188L224.585 49.5781L211.953 49.5861L236.102 0.846663Z" fill="black"/>
<path d="M68.637 0.952944L75.2755 0.948731L42.4274 22.2816L28.8763 25.8951L68.637 0.952944Z" fill="black"/>
<path d="M28.8766 25.7366L42.5306 22.2816L54.6635 49.686L39.0888 49.6958L28.8766 25.7366Z" fill="black"/>
<path d="M25.6896 0.980204L39.4411 0.971478L13.6983 49.7119L0.956705 49.72L25.6896 0.980204Z" fill="black"/>
<path d="M283.283 19.5144L293.113 19.5081L278.09 49.7992L267.798 49.8057L283.283 19.5144Z" fill="black"/>
<path d="M290.826 35.4161L302.486 35.4087L306.391 49.7812L294.813 49.7886L290.826 35.4161Z" fill="black"/>
<path d="M294.378 38.321C294.418 38.0294 291.355 36.4604 291.831 36.0715C292.575 35.4633 296.357 35.7705 299.754 34.6447C302.854 33.6171 305.358 30.8931 305.821 30.1801C306.326 29.402 307.062 26.7509 306.836 25.1639C306.593 23.4533 304.978 22.6409 304.674 22.4865C301.11 20.6752 294.821 21.7236 291.854 21.2808C290.45 21.0713 292.311 20.5619 293.113 19.5082C295.406 19.7127 303.197 19.487 309.684 20.5431C313.956 21.2386 316.103 23.3327 316.478 25.1578C316.963 27.5212 314.566 31.1589 302.503 36.0647C297.365 38.1543 294.145 40.042 294.378 38.321Z" fill="black"/>
<path d="M333.698 20.8678C334.55 19.2821 336.202 18.2919 337.997 18.2908L342.598 18.2878C342.829 18.2877 343.043 18.4053 343.166 18.5997C343.289 18.7941 343.305 19.0383 343.207 19.2474L329.255 49.1549C329.081 49.5282 328.707 49.767 328.296 49.7673L321.839 49.7714C321.068 49.7718 320.355 49.3664 319.96 48.7037C319.565 48.041 319.547 47.2184 319.913 46.5375L333.698 20.8678Z" fill="black"/>
<path d="M327.75 47.879L351.494 47.864L351.491 49.7525L327.747 49.7676L327.75 47.879Z" fill="black"/>
<path d="M330.85 33.0862L354.594 33.0711L354.591 34.9596L330.847 34.9747L330.85 33.0862Z" fill="black"/>
<path d="M341.654 18.2885L365.398 18.2734L365.393 21.1141L341.649 21.1291L341.654 18.2885Z" fill="black"/>
<path d="M406.199 20.8218C407.051 19.236 408.703 18.2459 410.498 18.2447L415.1 18.2418C415.33 18.2417 415.544 18.3593 415.667 18.5537C415.79 18.7481 415.806 18.9923 415.709 19.2014L401.756 49.1089C401.582 49.4822 401.208 49.721 400.797 49.7212L394.341 49.7253C393.57 49.7258 392.856 49.3204 392.461 48.6577C392.066 47.995 392.048 47.1724 392.414 46.4914L406.199 20.8218Z" fill="black"/>
<path d="M400.251 47.833L423.995 47.8179L423.992 49.7065L400.248 49.7215L400.251 47.833Z" fill="black"/>
<path d="M403.351 33.0402L427.095 33.0251L427.092 34.9136L403.348 34.9287L403.351 33.0402Z" fill="black"/>
<path d="M414.155 18.2424L437.899 18.2274L437.894 21.068L414.15 21.0831L414.155 18.2424Z" fill="black"/>
<path d="M379.055 19.685L389.474 19.6784L374.795 49.7378L363.378 49.745L379.055 19.685Z" fill="black"/>
<path d="M388.385 7.11206C391.678 6.34834 394.691 7.20941 395.108 9.03409C395.526 10.8588 393.191 12.9595 389.898 13.7232C386.604 14.4869 383.592 13.6259 383.174 11.8012C382.756 9.9765 385.091 7.87578 388.385 7.11206Z" fill="black"/>
<path d="M452.87 21.6966C452.872 20.4319 453.896 19.406 455.159 19.4052L463.3 19.4C464.66 19.3991 465.761 20.5033 465.759 21.8662L465.758 22.2812C465.758 22.651 465.458 22.951 465.089 22.9513L453.536 22.9586C453.167 22.9588 452.868 22.6592 452.869 22.2894L452.87 21.6966Z" fill="black"/>
<path d="M484.95 19.3864L488.322 19.3842L475.437 44.9615L474.199 38.8149L484.95 19.3864Z" fill="black"/>
<path d="M468.641 49.5854C467.161 49.4869 465.864 48.5598 465.29 47.1896C462.386 40.2504 456.489 26.1619 456.489 26.1619C455.944 24.8595 454.253 24.4081 453.129 25.2645C452.831 25.4916 451.876 25.513 451.717 25.8528L451.085 29.0412L453.165 20.9663L465.76 21.1748L472.512 38.0859C472.658 38.4508 472.981 38.7141 473.368 38.7824C473.754 38.8507 474.149 38.7144 474.411 38.4217L477.906 34.5316L475.505 44.831L473.726 47.916C473.182 48.8592 472.215 49.479 471.133 49.577L470.026 49.6774L468.641 49.5854Z" fill="black"/>
<path d="M451.59 21.137C452.148 20.0733 453.248 19.4065 454.447 19.4057L456.027 19.4047L440.809 49.6959L436.604 49.6985L451.59 21.137Z" fill="black"/>
<path d="M514.812 19.3675L528.982 19.3585C531.621 19.3568 534.234 19.8799 536.669 20.8974L537.224 21.1295L538.642 22.0004C539.619 22.6002 540.514 23.3236 541.306 24.1527C541.934 24.8098 542.48 25.541 542.932 26.3303L543.162 26.733C543.501 27.326 543.714 27.9836 543.785 28.664C543.898 29.738 543.762 30.8241 543.387 31.8379C542.882 33.2064 542.237 34.5189 541.461 35.7542L540.948 36.5713C540.377 37.4798 539.708 38.3223 538.953 39.0835L537.193 40.8574L536.585 41.378C534.496 43.1681 532.164 44.651 529.658 45.7816L527.693 46.6685L524.37 47.7384C522.333 48.3945 520.238 48.8534 518.114 49.109L513.62 49.6498C513.62 49.6498 496.422 49.9496 496.422 49.6607C496.422 49.4528 497.79 49.0076 501.353 48.7374C502.74 48.6322 513.622 48.4944 513.622 48.4944L514.85 48.3837C516.39 48.2451 517.905 47.9078 519.359 47.3803C520.656 46.91 521.894 46.2926 523.051 45.5402C524.536 44.574 525.864 43.3839 526.987 42.0122L527.702 41.1399C529.632 39.0205 531.248 36.6337 532.498 34.0533L532.572 33.9026L533.051 31.9542C533.32 30.8611 533.408 29.7314 533.311 28.6106C533.256 27.9678 533.087 27.3403 532.813 26.757C532.315 25.6982 531.587 24.7652 530.681 24.0268C529.771 23.285 528.782 22.6461 527.732 22.1216C526.844 21.7016 525.895 21.4297 524.919 21.3166L523.38 21.1383L514.809 21.1437L514.812 19.3675Z" fill="black"/>
<path d="M515.387 0.669504L525.361 0.663175L501.44 49.6575L490.22 49.6646L515.387 0.669504Z" fill="black"/>
<path d="M599.672 47.0153C598.79 46.3544 598.192 45.3834 597.996 44.2972L597.933 43.9471C597.535 41.7332 597.692 39.4535 598.391 37.3132C599.135 35.0344 600.33 32.928 601.903 31.1197L602.6 30.3177C603.771 28.9713 605.116 27.7863 606.598 26.7941L609.319 24.9719L613.566 22.8571L618.063 21.0781L620.689 20.3256L625.314 19.4324L630.098 18.8609L632.945 18.7566C634.743 18.6907 636.542 18.8205 638.311 19.1437C639.321 19.3284 640.289 19.6998 641.163 20.2391L641.683 20.5601C643.331 21.5764 644.775 22.8918 645.94 24.439L646.468 25.14L641.807 26.7219C641.809 25.5946 641.334 24.5204 640.5 23.7656L639.199 22.5886C638.841 22.2646 638.452 21.9774 638.037 21.7314L637.953 21.682C636.443 20.7878 634.721 20.3167 632.965 20.3178L631.509 20.3187C629.969 20.3197 628.432 20.4731 626.921 20.7767L625.445 21.0734L620.927 22.7624C620.766 22.8224 620.612 22.8974 620.465 22.9863L619.74 23.4261C617.846 24.5744 616.14 26.0077 614.681 27.6758L612.264 30.4389L610.638 33.2014C608.696 36.4985 607.738 40.2821 607.876 44.1037C607.918 45.263 608.582 46.3076 609.613 46.8348C611.806 47.9571 614.235 48.5415 616.699 48.5399L621.787 48.5367C624.082 48.5353 626.353 48.0548 628.455 47.126C630.198 46.3558 631.84 45.3737 633.344 44.2018L633.504 44.0775L636.588 44.0756L630.052 47.9562L627.099 49.0364C625.881 49.4821 624.616 49.7835 623.328 49.9345L621.72 50.1233C618.189 50.5375 614.627 50.6068 611.084 50.3303L607.246 50.0307C604.656 49.8285 602.178 48.8941 600.1 47.3361L599.672 47.0153Z" fill="black"/>
<path d="M670.645 0.570839L680.341 0.564687L656.095 49.6876L645.812 49.6941L670.645 0.570839Z" fill="black"/>
<path d="M690.528 19.7323L701.063 19.7256L685.743 49.5403L675.46 49.5468L690.528 19.7323Z" fill="black"/>
<path d="M657.695 32.6869L689.667 32.6666L689.662 35.5253L657.69 35.5456L657.695 32.6869Z" fill="black"/>
</svg>
